# vtk DataFile Version 3.0
FlowLab Venturi fixture result
ASCII
DATASET UNSTRUCTURED_GRID
POINTS 8 float
120 250 0
120 270 0
320 242 0
320 278 0
420 255 0
420 265 0
720 246 0
720 274 0
CELLS 3 15
4 0 2 3 1
4 2 4 5 3
4 4 6 7 5
CELL_TYPES 3
9
9
9
POINT_DATA 8
SCALARS pressure float 1
LOOKUP_TABLE default
260000
260000
185000
185000
72000
72000
101325
101325
SCALARS temperature float 1
LOOKUP_TABLE default
293.15
293.15
293.25
293.25
293.75
293.75
293.35
293.35
SCALARS phase_fraction float 1
LOOKUP_TABLE default
0
0
0.05
0.05
0.75
0.75
0.08
0.08
SCALARS residuals float 1
LOOKUP_TABLE default
0.00001
0.00001
0.00004
0.00004
0.00012
0.00012
0.00003
0.00003
VECTORS velocity float
1.4 0 0
1.4 0 0
3.1 0.1 0
3.1 -0.1 0
7.2 0 0
7.2 0 0
2.2 -0.05 0
2.2 0.05 0
